<svg width="184" height="35" viewBox="0 0 184 35" fill="none" xmlns="http://www.w3.org/2000/svg">
<path d="M0.8 34.48C0.88 33.68 1 33.04 1.16 32.56C1.34667 32.08 1.57333 31.6533 1.84 31.28C2.13333 30.9333 2.48 30.5467 2.88 30.12C3.76 29.1867 4.54667 28.3467 5.24 27.6C5.93333 26.8533 6.61333 26.12 7.28 25.4C7.94667 24.6533 8.65333 23.8267 9.4 22.92C10.1733 22.0133 11.0667 20.9467 12.08 19.72C11.9733 18.8133 11.88 17.9467 11.8 17.12C11.72 16.2667 11.6533 15.4667 11.6 14.72C11.5467 13.9467 11.5067 13.2267 11.48 12.56C11.4533 11.8667 11.4267 11.2267 11.4 10.64C11.32 8.77333 11.2267 7.25333 11.12 6.08C11.04 4.90667 10.8533 4.04 10.56 3.48C10.2667 2.92 9.76 2.64 9.04 2.64C8.37333 2.64 7.8 2.84 7.32 3.24C6.84 3.61333 6.44 4.12 6.12 4.76C5.8 5.37333 5.56 6.02667 5.4 6.72C5.24 7.41333 5.16 8.08 5.16 8.72C5.16 9.65333 5.33333 10.5067 5.68 11.28C4.37333 11.28 3.45333 10.9867 2.92 10.4C2.38667 9.81333 2.12 9.09333 2.12 8.24C2.12 7.38667 2.33333 6.54667 2.76 5.72C3.18667 4.86666 3.76 4.09333 4.48 3.4C5.2 2.70667 6.02667 2.14667 6.96 1.72C7.89333 1.29333 8.88 1.08 9.92 1.08C11.2 1.08 12.2133 1.41333 12.96 2.08C13.7067 2.74667 14.2533 3.62667 14.6 4.72C14.9733 5.78667 15.2133 6.96 15.32 8.24C15.4267 9.49333 15.48 10.7333 15.48 11.96C15.5067 13.1867 15.5467 14.2667 15.6 15.2C17.6533 12.4267 19.4 9.84 20.84 7.44C22.3067 5.01333 23.52 2.82667 24.48 0.879998C24.6933 1.01333 24.9333 1.30666 25.2 1.76C25.4667 2.18666 25.6 2.6 25.6 3C25.6 3.53333 25.3333 4.32 24.8 5.36C24.2933 6.37333 23.5867 7.57333 22.68 8.96C21.7733 10.32 20.72 11.8 19.52 13.4C18.32 14.9733 17.04 16.5867 15.68 18.24C15.76 19.92 15.8933 21.5333 16.08 23.08C16.2667 24.6267 16.5067 26.0133 16.8 27.24C17.12 28.44 17.5067 29.3867 17.96 30.08C18.4133 30.8 18.9333 31.16 19.52 31.16C20.3733 31.16 21.3733 30.4267 22.52 28.96C23.6667 27.4667 25.0133 25.3867 26.56 22.72L27.44 23.44C26.3467 25.6 25.3333 27.4 24.4 28.84C23.4933 30.28 22.5733 31.36 21.64 32.08C20.7067 32.8267 19.6667 33.2 18.52 33.2C17.3733 33.2 16.4267 32.8667 15.68 32.2C14.9333 31.5333 14.3333 30.6667 13.88 29.6C13.4267 28.5067 13.08 27.3333 12.84 26.08C12.6267 24.8 12.4533 23.56 12.32 22.36C10.7733 24.2 9.24 25.9467 7.72 27.6C6.2 29.2267 4.82667 30.64 3.6 31.84C2.4 33.0667 1.46667 33.9467 0.8 34.48ZM28.4072 31.2C27.5005 31.2 26.7539 30.7867 26.1672 29.96C25.6072 29.1067 25.3272 28.1333 25.3272 27.04C25.3272 26.2933 25.4472 25.4133 25.6872 24.4C25.9272 23.3867 26.2339 22.4 26.6072 21.44C27.0072 20.48 27.4072 19.68 27.8072 19.04C28.2339 18.4 28.6205 18.08 28.9672 18.08C29.1539 18.08 29.4339 18.1867 29.8072 18.4C30.2072 18.5867 30.5539 18.8267 30.8472 19.12C30.5539 19.5467 30.1939 20.2 29.7672 21.08C29.3672 21.96 29.0072 22.9067 28.6872 23.92C28.3672 24.9333 28.2072 25.8533 28.2072 26.68C28.2072 26.7867 28.2205 27.04 28.2472 27.44C28.3005 27.84 28.4072 28.2133 28.5672 28.56C28.7272 28.9067 29.0072 29.08 29.4072 29.08C29.8605 29.08 30.3405 28.84 30.8472 28.36C31.3805 27.8533 31.9139 27.2133 32.4472 26.44C33.0072 25.64 33.5405 24.7867 34.0472 23.88C34.5805 22.9733 35.0472 22.0933 35.4472 21.24C35.8739 20.3867 36.2205 19.6667 36.4872 19.08C36.7272 19.1067 37.0339 19.1733 37.4072 19.28C37.8072 19.3867 38.1539 19.5333 38.4472 19.72C38.7405 19.88 38.8872 20.12 38.8872 20.44C38.8872 20.52 38.7539 20.8533 38.4872 21.44C38.2472 22 37.9539 22.68 37.6072 23.48C37.2872 24.28 36.9939 25.1067 36.7272 25.96C36.4872 26.7867 36.3672 27.52 36.3672 28.16C36.3672 28.5333 36.4339 28.8667 36.5672 29.16C36.7272 29.4267 37.0205 29.56 37.4472 29.56C38.0072 29.56 38.6739 29.3067 39.4472 28.8C40.2205 28.2933 41.0205 27.56 41.8472 26.6C42.6739 25.64 43.4072 24.4933 44.0472 23.16L44.6472 23.64C44.0605 25.08 43.3005 26.3733 42.3672 27.52C41.4339 28.6667 40.4339 29.56 39.3672 30.2C38.3005 30.8667 37.2605 31.2 36.2472 31.2C35.4739 31.2 34.8872 31.0133 34.4872 30.64C34.1139 30.2933 33.8605 29.84 33.7272 29.28C33.5939 28.6933 33.5139 28.1067 33.4872 27.52C33.4872 27.3867 33.4872 27.2533 33.4872 27.12C33.4872 26.96 33.4872 26.8267 33.4872 26.72C33.0339 27.44 32.5405 28.1467 32.0072 28.84C31.4739 29.5067 30.9005 30.0667 30.2872 30.52C29.7005 30.9733 29.0739 31.2 28.4072 31.2ZM47.7034 32.04C46.3701 32.04 45.2901 31.76 44.4634 31.2C43.6634 30.6667 43.0901 29.9867 42.7434 29.16C42.3968 28.3067 42.2234 27.44 42.2234 26.56C42.2234 25.7867 42.3301 25.1867 42.5434 24.76C42.7568 24.3333 43.0234 24.0267 43.3434 23.84C43.6634 23.6267 43.9568 23.4667 44.2234 23.36C44.5168 23.2533 44.7301 23.1333 44.8634 23C45.5301 22.3067 46.2101 21.5067 46.9034 20.6C47.6234 19.6667 48.2368 18.64 48.7434 17.52V17.12C48.7434 16.0533 48.9168 15.3067 49.2634 14.88C49.6368 14.4267 50.0634 14.2 50.5434 14.2C50.8634 14.2 51.0901 14.28 51.2234 14.44C51.3834 14.6 51.4768 14.7867 51.5034 15C51.5034 15.16 51.4634 15.3467 51.3834 15.56C51.3301 15.7733 51.3034 16.0667 51.3034 16.44C51.3034 17.24 51.4901 18.16 51.8634 19.2C52.2634 20.2133 52.6501 21.2933 53.0234 22.44C53.4234 23.5867 53.6234 24.76 53.6234 25.96C53.6234 26.28 53.6101 26.5733 53.5834 26.84C53.5568 27.1067 53.5168 27.36 53.4634 27.6C54.2901 27.3867 55.1034 26.9333 55.9034 26.24C56.7034 25.52 57.4634 24.4667 58.1834 23.08L58.6634 23.44C58.1568 24.96 57.4234 26.1867 56.4634 27.12C55.5034 28.0267 54.3834 28.5867 53.1034 28.8C52.6768 29.8933 51.9701 30.7067 50.9834 31.24C50.0234 31.7733 48.9301 32.04 47.7034 32.04ZM47.4234 30.28C47.9568 30.28 48.4501 30.1467 48.9034 29.88C49.3568 29.6133 49.7168 29.2267 49.9834 28.72C48.8901 28.48 47.9034 28.0533 47.0234 27.44C46.1434 26.8267 45.4634 26.2 44.9834 25.56C44.6101 25.64 44.4234 26 44.4234 26.64C44.4234 27.52 44.6768 28.3467 45.1834 29.12C45.6901 29.8933 46.4368 30.28 47.4234 30.28ZM50.3034 27.52C50.3568 27.3333 50.3834 27.12 50.3834 26.88C50.4101 26.6133 50.4234 26.4133 50.4234 26.28C50.3968 25.08 50.2368 23.8933 49.9434 22.72C49.6501 21.5467 49.3568 20.3467 49.0634 19.12C48.5834 19.9467 48.0234 20.84 47.3834 21.8C46.7434 22.76 46.1434 23.5333 45.5834 24.12C46.0101 24.84 46.6368 25.52 47.4634 26.16C48.2901 26.8 49.2368 27.2533 50.3034 27.52ZM58.8869 31.52C58.3002 31.52 57.8735 31.0667 57.6069 30.16C57.3669 29.2533 57.2469 28.2 57.2469 27C57.2469 25.7733 57.4469 24.2933 57.8469 22.56C58.2735 20.8267 58.8335 19 59.5269 17.08C60.2469 15.16 61.0335 13.28 61.8869 11.44C62.7669 9.6 63.6602 7.93333 64.5669 6.44C65.5002 4.92 66.3802 3.70667 67.2069 2.8C68.0602 1.89333 68.8069 1.44 69.4469 1.44C70.0069 1.44 70.4335 1.74666 70.7269 2.36C71.0202 2.97333 71.1669 3.61333 71.1669 4.28C71.1669 5 70.9935 5.89333 70.6469 6.96C70.3269 8 69.8735 9.12 69.2869 10.32C68.7002 11.52 68.0069 12.7067 67.2069 13.88C66.4335 15.0267 65.5802 16.08 64.6469 17.04C63.7402 18 62.7935 18.7733 61.8069 19.36C61.4602 20.2667 61.1802 21.12 60.9669 21.92C60.7802 22.6933 60.6469 23.4267 60.5669 24.12C60.4869 24.8133 60.4469 25.4933 60.4469 26.16C60.4469 26.2933 60.4469 26.44 60.4469 26.6C60.4735 26.7333 60.4869 26.8667 60.4869 27C60.5935 26.84 60.7669 26.4267 61.0069 25.76C61.2469 25.0933 61.5669 24.32 61.9669 23.44C62.3935 22.5333 62.9135 21.6533 63.5269 20.8C64.1402 19.92 64.8602 19.2 65.6869 18.64C66.5135 18.0533 67.4602 17.76 68.5269 17.76C69.4335 17.76 70.1402 17.9733 70.6469 18.4C71.1535 18.8 71.5135 19.3067 71.7269 19.92C71.9402 20.5067 72.0469 21.1067 72.0469 21.72C72.0469 22.5733 71.9002 23.3733 71.6069 24.12C71.3402 24.8667 71.0602 25.5733 70.7669 26.24C70.5002 26.88 70.3669 27.4933 70.3669 28.08C70.3669 28.56 70.4735 28.8933 70.6869 29.08C70.9002 29.2667 71.1535 29.36 71.4469 29.36C72.0335 29.36 72.7135 29.0667 73.4869 28.48C74.2869 27.8933 75.0735 27.12 75.8469 26.16C76.6469 25.1733 77.3269 24.0933 77.8869 22.92L78.5269 23.6C77.9135 24.9333 77.1935 26.16 76.3669 27.28C75.5402 28.4 74.6335 29.2933 73.6469 29.96C72.6602 30.6267 71.5935 30.96 70.4469 30.96C69.4335 30.96 68.6602 30.6933 68.1269 30.16C67.5935 29.6267 67.3269 28.96 67.3269 28.16C67.3269 27.6 67.4202 26.9867 67.6069 26.32C67.8202 25.6267 68.0202 24.9333 68.2069 24.24C68.3935 23.5467 68.4869 22.92 68.4869 22.36C68.4869 21.72 68.3402 21.28 68.0469 21.04C67.7802 20.8 67.4469 20.68 67.0469 20.68C66.3802 20.68 65.7802 20.9467 65.2469 21.48C64.7135 21.9867 64.2335 22.6533 63.8069 23.48C63.3802 24.3067 62.9802 25.1867 62.6069 26.12C62.2335 27.0267 61.8602 27.8933 61.4869 28.72C61.1135 29.5467 60.7135 30.2133 60.2869 30.72C59.8869 31.2533 59.4202 31.52 58.8869 31.52ZM62.6469 16.8C63.3402 16.1867 64.0069 15.4533 64.6469 14.6C65.2869 13.7467 65.8735 12.8667 66.4069 11.96C66.9669 11.0267 67.4469 10.1333 67.8469 9.28C68.2735 8.4 68.6069 7.61333 68.8469 6.92C69.0869 6.22667 69.2202 5.69333 69.2469 5.32C69.2469 5.29333 69.2469 5.28 69.2469 5.28C69.2469 5.25333 69.2469 5.22667 69.2469 5.2C69.0869 5.2 68.7402 5.53333 68.2069 6.2C67.7002 6.84 67.1002 7.72 66.4069 8.84C65.7402 9.93333 65.0602 11.1733 64.3669 12.56C63.7002 13.9467 63.1269 15.36 62.6469 16.8ZM90.2925 30.8C89.2525 30.8 88.4525 30.5333 87.8925 30C87.3592 29.4933 87.0925 28.84 87.0925 28.04C87.0925 27.5067 87.1858 26.9467 87.3725 26.36C87.5592 25.7467 87.7458 25.1333 87.9325 24.52C88.1192 23.9067 88.2125 23.32 88.2125 22.76C88.2125 22.1733 88.0658 21.7733 87.7725 21.56C87.5058 21.32 87.1858 21.2 86.8125 21.2C86.0125 21.2 85.1858 21.5333 84.3325 22.2C83.5058 22.84 82.6925 23.6533 81.8925 24.64C81.1192 25.6267 80.3858 26.6533 79.6925 27.72C78.9992 28.7867 78.3992 29.7467 77.8925 30.6C77.3858 30.6 76.9058 30.5067 76.4525 30.32C75.9992 30.16 75.6125 29.8667 75.2925 29.44C75.3192 29.3067 75.4792 28.9067 75.7725 28.24C76.0392 27.5467 76.3458 26.7333 76.6925 25.8C77.0392 24.84 77.3458 23.84 77.6125 22.8C77.8792 21.76 78.0125 20.8133 78.0125 19.96C78.1992 19.7467 78.4792 19.5333 78.8525 19.32C79.2525 19.1067 79.6658 19 80.0925 19C81.0258 19 81.4925 19.4 81.4925 20.2C81.4925 20.52 81.4258 21 81.2925 21.64C81.1858 22.2533 81.0258 22.96 80.8125 23.76C81.5058 22.8267 82.2658 21.9467 83.0925 21.12C83.9192 20.2933 84.7725 19.6267 85.6525 19.12C86.5592 18.5867 87.4658 18.32 88.3725 18.32C89.5192 18.32 90.3592 18.7067 90.8925 19.48C91.4525 20.2533 91.7325 21.1067 91.7325 22.04C91.7325 22.84 91.5992 23.5867 91.3325 24.28C91.0658 24.9733 90.7992 25.6267 90.5325 26.24C90.2925 26.8533 90.1725 27.4533 90.1725 28.04C90.1725 28.4667 90.2658 28.7733 90.4525 28.96C90.6658 29.12 90.8925 29.2 91.1325 29.2C91.7725 29.2 92.4392 28.8933 93.1325 28.28C93.8258 27.6667 94.4792 26.8933 95.0925 25.96C95.7325 25 96.2925 24.04 96.7725 23.08L97.4525 23.64C96.8925 24.9467 96.2525 26.1467 95.5325 27.24C94.8392 28.3067 94.0525 29.1733 93.1725 29.84C92.3192 30.48 91.3592 30.8 90.2925 30.8ZM98.7588 31.2C97.8521 31.2 97.1054 30.7867 96.5188 29.96C95.9588 29.1067 95.6787 28.1333 95.6787 27.04C95.6787 26.2933 95.7988 25.4133 96.0388 24.4C96.2788 23.3867 96.5854 22.4 96.9588 21.44C97.3588 20.48 97.7588 19.68 98.1588 19.04C98.5854 18.4 98.9721 18.08 99.3188 18.08C99.5054 18.08 99.7854 18.1867 100.159 18.4C100.559 18.5867 100.905 18.8267 101.199 19.12C100.905 19.5467 100.545 20.2 100.119 21.08C99.7188 21.96 99.3588 22.9067 99.0388 23.92C98.7188 24.9333 98.5588 25.8533 98.5588 26.68C98.5588 26.7867 98.5721 27.04 98.5988 27.44C98.6521 27.84 98.7588 28.2133 98.9188 28.56C99.0788 28.9067 99.3588 29.08 99.7588 29.08C100.212 29.08 100.692 28.84 101.199 28.36C101.732 27.8533 102.265 27.2133 102.799 26.44C103.359 25.64 103.892 24.7867 104.399 23.88C104.932 22.9733 105.399 22.0933 105.799 21.24C106.225 20.3867 106.572 19.6667 106.839 19.08C107.079 19.1067 107.385 19.1733 107.759 19.28C108.159 19.3867 108.505 19.5333 108.799 19.72C109.092 19.88 109.239 20.12 109.239 20.44C109.239 20.52 109.105 20.8533 108.839 21.44C108.599 22 108.305 22.68 107.959 23.48C107.639 24.28 107.345 25.1067 107.079 25.96C106.839 26.7867 106.719 27.52 106.719 28.16C106.719 28.5333 106.785 28.8667 106.919 29.16C107.079 29.4267 107.372 29.56 107.799 29.56C108.359 29.56 109.025 29.3067 109.799 28.8C110.572 28.2933 111.372 27.56 112.199 26.6C113.025 25.64 113.759 24.4933 114.399 23.16L114.999 23.64C114.412 25.08 113.652 26.3733 112.719 27.52C111.785 28.6667 110.785 29.56 109.719 30.2C108.652 30.8667 107.612 31.2 106.599 31.2C105.825 31.2 105.239 31.0133 104.839 30.64C104.465 30.2933 104.212 29.84 104.079 29.28C103.945 28.6933 103.865 28.1067 103.839 27.52C103.839 27.3867 103.839 27.2533 103.839 27.12C103.839 26.96 103.839 26.8267 103.839 26.72C103.385 27.44 102.892 28.1467 102.359 28.84C101.825 29.5067 101.252 30.0667 100.639 30.52C100.052 30.9733 99.4254 31.2 98.7588 31.2ZM116.135 31.2C115.628 31.2 115.108 31.0667 114.575 30.8C114.068 30.56 113.642 30.1733 113.295 29.64C112.922 29.1067 112.735 28.4267 112.735 27.6C112.735 26.72 112.948 25.7333 113.375 24.64C113.802 23.5467 114.375 22.4533 115.095 21.36C115.842 20.2667 116.695 19.2667 117.655 18.36C118.642 17.4533 119.682 16.72 120.775 16.16C121.868 15.6 122.975 15.32 124.095 15.32C124.708 15.32 125.188 15.4267 125.535 15.64C125.882 15.8267 126.055 16.1467 126.055 16.6C126.055 16.7333 126.028 16.8933 125.975 17.08C125.922 17.24 125.788 17.3867 125.575 17.52C125.468 17.36 125.282 17.2533 125.015 17.2C124.748 17.12 124.468 17.08 124.175 17.08C123.295 17.08 122.455 17.3333 121.655 17.84C120.855 18.32 120.122 18.9467 119.455 19.72C118.788 20.4933 118.202 21.3333 117.695 22.24C117.215 23.1467 116.842 24.0267 116.575 24.88C116.308 25.7067 116.175 26.4267 116.175 27.04C116.175 27.5467 116.282 27.96 116.495 28.28C116.708 28.5733 117.028 28.72 117.455 28.72C118.175 28.72 119.028 28.3067 120.015 27.48C121.028 26.6267 122.055 25.4133 123.095 23.84C124.162 22.24 125.122 20.3333 125.975 18.12C126.562 16.6 127.175 15.0533 127.815 13.48C128.455 11.88 129.095 10.3467 129.735 8.88C130.375 7.41333 131.002 6.10667 131.615 4.96C132.255 3.81333 132.855 2.90667 133.415 2.24C134.002 1.54667 134.535 1.2 135.015 1.2C135.308 1.2 135.562 1.32 135.775 1.56C136.015 1.77333 136.135 2.05333 136.135 2.4C136.135 2.85333 135.908 3.58666 135.455 4.6C135.028 5.58666 134.468 6.77333 133.775 8.16C133.108 9.54667 132.375 11.0533 131.575 12.68C130.802 14.28 130.068 15.9333 129.375 17.64C128.708 19.32 128.148 20.9867 127.695 22.64C127.268 24.2667 127.055 25.8 127.055 27.24C127.055 27.88 127.108 28.32 127.215 28.56C127.348 28.7733 127.562 28.88 127.855 28.88C128.442 28.88 129.095 28.6533 129.815 28.2C130.535 27.7467 131.268 27.08 132.015 26.2C132.762 25.2933 133.442 24.2133 134.055 22.96L134.815 23.6C134.228 25.0667 133.482 26.36 132.575 27.48C131.668 28.6 130.695 29.4667 129.655 30.08C128.615 30.72 127.588 31.04 126.575 31.04C125.482 31.04 124.722 30.6933 124.295 30C123.868 29.3067 123.655 28.4933 123.655 27.56C123.655 27.1333 123.682 26.7067 123.735 26.28C123.815 25.8267 123.895 25.3867 123.975 24.96C123.148 26.16 122.268 27.24 121.335 28.2C120.428 29.1333 119.535 29.8667 118.655 30.4C117.775 30.9333 116.935 31.2 116.135 31.2ZM137.223 32.92C135.703 32.92 134.543 32.44 133.743 31.48C132.97 30.5467 132.583 29.2533 132.583 27.6C132.583 26.2933 132.81 24.7467 133.263 22.96C133.717 21.1733 134.317 19.3067 135.063 17.36C135.81 15.3867 136.637 13.4667 137.543 11.6C138.477 9.70667 139.423 8 140.383 6.48C141.343 4.93333 142.25 3.70667 143.103 2.8C143.957 1.89333 144.69 1.44 145.303 1.44C145.837 1.44 146.237 1.74666 146.503 2.36C146.77 2.97333 146.917 3.58666 146.943 4.2C146.943 4.94666 146.783 5.85333 146.463 6.92C146.143 7.98667 145.69 9.12 145.103 10.32C144.517 11.52 143.837 12.7067 143.063 13.88C142.29 15.0533 141.437 16.12 140.503 17.08C139.597 18.04 138.65 18.8 137.663 19.36C137.477 19.7067 137.237 20.3067 136.943 21.16C136.677 22.0133 136.423 22.9867 136.183 24.08C135.97 25.1733 135.863 26.2667 135.863 27.36C135.863 28.4267 136.01 29.3333 136.303 30.08C136.623 30.8533 137.17 31.24 137.943 31.24C138.637 31.24 139.383 30.92 140.183 30.28C140.983 29.64 141.637 28.8667 142.143 27.96C141.157 27.4267 140.41 26.68 139.903 25.72C139.397 24.76 139.143 23.7467 139.143 22.68C139.143 21.3733 139.49 20.32 140.183 19.52C140.903 18.72 141.77 18.32 142.783 18.32C143.637 18.32 144.343 18.6533 144.903 19.32C145.463 19.96 145.743 20.96 145.743 22.32C145.743 23.0933 145.637 23.92 145.423 24.8C145.237 25.6533 144.943 26.5067 144.543 27.36C144.677 27.36 144.783 27.3733 144.863 27.4C144.97 27.4 145.103 27.4 145.263 27.4C146.197 27.4 146.997 27.1467 147.663 26.64C148.33 26.1333 148.89 25.5333 149.343 24.84C149.797 24.1467 150.157 23.52 150.423 22.96L151.023 23.8C150.357 25.3733 149.53 26.5733 148.543 27.4C147.583 28.2267 146.317 28.64 144.743 28.64C144.61 28.64 144.463 28.64 144.303 28.64C144.17 28.64 144.037 28.6267 143.903 28.6C143.157 29.8 142.223 30.8133 141.103 31.64C140.01 32.4933 138.717 32.92 137.223 32.92ZM142.823 26.64C143.063 26.1067 143.237 25.5733 143.343 25.04C143.477 24.48 143.543 23.88 143.543 23.24C143.543 22.28 143.423 21.5733 143.183 21.12C142.97 20.6667 142.703 20.44 142.383 20.44C142.037 20.44 141.73 20.68 141.463 21.16C141.223 21.64 141.103 22.2133 141.103 22.88C141.103 23.44 141.223 24.0933 141.463 24.84C141.703 25.5867 142.157 26.1867 142.823 26.64ZM138.423 16.84C139.09 16.2267 139.73 15.52 140.343 14.72C140.983 13.8933 141.57 13.04 142.103 12.16C142.663 11.2533 143.143 10.3733 143.543 9.52C143.97 8.64 144.317 7.85333 144.583 7.16C144.85 6.44 145.01 5.86667 145.063 5.44C145.063 5.38666 145.063 5.34666 145.063 5.32C145.063 5.26667 145.063 5.22667 145.063 5.2C144.823 5.28 144.423 5.66667 143.863 6.36C143.33 7.05333 142.717 7.96 142.023 9.08C141.357 10.1733 140.703 11.4 140.063 12.76C139.423 14.0933 138.877 15.4533 138.423 16.84ZM154.031 31.76C152.324 31.76 151.004 31.2933 150.071 30.36C149.164 29.4533 148.711 28.3067 148.711 26.92C148.711 25.7467 149.004 24.5067 149.591 23.2C150.204 21.8667 151.017 20.6267 152.031 19.48C153.044 18.3067 154.164 17.36 155.391 16.64C156.617 15.92 157.844 15.56 159.071 15.56C159.764 15.56 160.417 15.7467 161.031 16.12C161.671 16.4667 161.991 17.1733 161.991 18.24C161.991 19.2533 161.697 20.2 161.111 21.08C160.524 21.96 159.737 22.7467 158.751 23.44C157.764 24.1333 156.671 24.7067 155.471 25.16C154.297 25.5867 153.111 25.8667 151.911 26C151.884 26.1067 151.857 26.2267 151.831 26.36C151.831 26.4667 151.831 26.6533 151.831 26.92C151.831 27.0533 151.844 27.2933 151.871 27.64C151.924 27.96 152.044 28.3067 152.231 28.68C152.417 29.0533 152.724 29.3733 153.151 29.64C153.577 29.9067 154.164 30.04 154.911 30.04C156.031 30.04 157.151 29.7333 158.271 29.12C159.417 28.48 160.484 27.64 161.471 26.6C162.484 25.56 163.324 24.4 163.991 23.12L164.791 23.76C164.071 25.36 163.137 26.76 161.991 27.96C160.871 29.16 159.617 30.0933 158.231 30.76C156.871 31.4267 155.471 31.76 154.031 31.76ZM152.351 24.52C153.044 24.44 153.817 24.2 154.671 23.8C155.524 23.4 156.337 22.8933 157.111 22.28C157.911 21.6667 158.564 21 159.071 20.28C159.577 19.5333 159.831 18.7867 159.831 18.04C159.831 17.7467 159.777 17.5467 159.671 17.44C159.564 17.3333 159.391 17.28 159.151 17.28C158.537 17.28 157.897 17.5067 157.231 17.96C156.564 18.3867 155.911 18.96 155.271 19.68C154.631 20.3733 154.057 21.1467 153.551 22C153.044 22.8533 152.644 23.6933 152.351 24.52ZM175.703 31.52C174.877 31.52 174.157 31.2533 173.543 30.72C172.93 30.1867 172.437 29.52 172.063 28.72C171.69 27.92 171.41 27.1067 171.223 26.28C171.037 25.4267 170.943 24.6933 170.943 24.08C171.317 24 171.783 23.88 172.343 23.72C172.903 23.56 173.477 23.3467 174.063 23.08C174.65 22.7867 175.13 22.44 175.503 22.04C175.903 21.6133 176.103 21.1067 176.103 20.52C176.103 20.04 175.943 19.6533 175.623 19.36C175.33 19.0667 174.903 18.92 174.343 18.92C173.597 18.92 172.89 19.1733 172.223 19.68C171.557 20.16 170.93 20.8 170.343 21.6C169.783 22.4 169.263 23.2667 168.783 24.2C168.33 25.1333 167.917 26.04 167.543 26.92C167.197 27.8 166.903 28.56 166.663 29.2C166.37 30 166.09 30.5333 165.823 30.8C165.557 31.0933 165.17 31.24 164.663 31.24C164.477 31.24 164.25 31.1867 163.983 31.08C163.743 30.9733 163.53 30.7067 163.343 30.28C163.183 29.8533 163.103 29.1733 163.103 28.24C163.103 26.6133 163.33 24.8267 163.783 22.88C164.237 20.9333 164.837 18.96 165.583 16.96C166.357 14.9333 167.197 13 168.103 11.16C169.01 9.32 169.93 7.66667 170.863 6.2C171.797 4.73333 172.663 3.57333 173.463 2.72C174.29 1.86666 174.97 1.44 175.503 1.44C175.957 1.44 176.33 1.72 176.623 2.28C176.943 2.81333 177.103 3.50667 177.103 4.36C177.103 5.26666 176.903 6.28 176.503 7.4C176.103 8.49333 175.53 9.61333 174.783 10.76C174.063 11.88 173.197 12.9467 172.183 13.96C171.17 14.9733 170.05 15.84 168.823 16.56C168.077 18.2933 167.503 20.0133 167.103 21.72C166.703 23.4 166.45 24.8933 166.343 26.2C166.823 25.1067 167.37 23.9867 167.983 22.84C168.597 21.6933 169.277 20.6267 170.023 19.64C170.77 18.6267 171.57 17.8133 172.423 17.2C173.303 16.5867 174.237 16.28 175.223 16.28C176.29 16.28 177.223 16.6533 178.023 17.4C178.823 18.1467 179.223 19.08 179.223 20.2C179.223 21 179.01 21.6933 178.583 22.28C178.157 22.8667 177.623 23.36 176.983 23.76C176.37 24.1333 175.743 24.4133 175.103 24.6C174.463 24.7867 173.917 24.8933 173.463 24.92C173.543 25.2667 173.65 25.7067 173.783 26.24C173.943 26.7733 174.143 27.2933 174.383 27.8C174.623 28.3067 174.93 28.7333 175.303 29.08C175.677 29.4267 176.117 29.6 176.623 29.6C177.29 29.6 177.97 29.2933 178.663 28.68C179.383 28.0667 180.077 27.2533 180.743 26.24C181.437 25.2267 182.05 24.1067 182.583 22.88L183.143 23.56C182.69 24.8933 182.063 26.1733 181.263 27.4C180.49 28.6267 179.623 29.6133 178.663 30.36C177.703 31.1333 176.717 31.52 175.703 31.52ZM169.983 13.84C170.703 13.2 171.463 12.4133 172.263 11.48C173.063 10.52 173.743 9.50667 174.303 8.44C174.89 7.34667 175.197 6.30666 175.223 5.32C175.223 5.29333 175.223 5.28 175.223 5.28C175.223 5.25333 175.223 5.22667 175.223 5.2C174.957 5.30667 174.53 5.77333 173.943 6.6C173.383 7.4 172.757 8.42667 172.063 9.68C171.37 10.9333 170.677 12.32 169.983 13.84Z" fill="url(#paint0_linear_104_5)"/>
<defs>
<linearGradient id="paint0_linear_104_5" x1="1.67153" y1="41" x2="194.022" y2="41" gradientUnits="userSpaceOnUse">
<stop stop-color="#E221B8"/>
<stop offset="0.458333" stop-color="#576FC6"/>
<stop offset="0.958333" stop-color="#15D7E3"/>
</linearGradient>
</defs>
</svg>
